<?xml version="1.0" standalone="no"?>
<!DOCTYPE svg PUBLIC "-//W3C//DTD SVG 20010904//EN"
 "http://www.w3.org/TR/2001/REC-SVG-20010904/DTD/svg10.dtd">
<svg version="1.0" xmlns="http://www.w3.org/2000/svg"
 width="512.000000pt" height="512.000000pt" viewBox="0 0 512.000000 512.000000"
 preserveAspectRatio="xMidYMid meet">
<metadata>
Created by potrace 1.14, written by Peter Selinger 2001-2017
</metadata>
<g transform="translate(0.000000,512.000000) scale(0.100000,-0.100000)"
fill="#000000" stroke="none">
<path d="M34 5084 l-34 -36 2 -2494 3 -2494 28 -27 27 -28 460 -3 c405 -2 464
-1 491 13 36 19 59 67 52 113 -6 39 -53 82 -91 83 -15 0 -190 1 -389 1 -324 1
-363 3 -367 17 -6 25 -4 1261 3 1262 3 0 99 2 213 2 l207 2 3 -397 3 -398 28
-27 27 -28 1100 -3 c972 -2 1104 0 1130 13 71 37 73 136 4 182 -23 15 -112 16
-1037 15 -557 0 -1019 2 -1028 4 -14 4 -16 76 -15 747 l1 742 212 1 212 1 3
-503 3 -504 28 -27 27 -28 1220 0 1220 0 27 28 28 27 0 579 0 579 -23 25 c-48
51 -132 43 -167 -15 -17 -29 -18 -64 -19 -522 l-1 -491 -1050 -2 c-577 0
-1057 1 -1066 3 -14 4 -16 74 -16 708 0 642 -1 707 -16 730 -46 69 -145 67
-182 -4 -12 -22 -15 -67 -15 -199 l0 -170 -290 -3 -290 -3 -27 -28 -28 -27 -3
-392 c-1 -216 -7 -395 -11 -398 -7 -4 -316 -5 -397 -1 l-21 1 0 1595 c0 1140
3 1595 11 1598 6 2 246 4 534 4 l522 0 0 -214 0 -213 -284 0 -285 0 -35 -34
-36 -33 3 -576 2 -577 26 -25 c50 -50 129 -42 164 17 17 30 18 62 18 512 0
265 2 486 4 492 3 7 213 11 708 11 786 0 740 -4 771 70 20 47 4 97 -40 124
-29 18 -54 19 -417 19 l-386 0 1 213 1 212 1127 1 c852 1 1133 4 1155 13 65
27 80 119 27 171 l-24 25 -1857 2 -1856 3 -33 -36z"/>
<path d="M4522 5093 c-40 -34 -50 -79 -27 -126 26 -55 45 -60 238 -61 l174 0
-1 -531 -1 -530 -212 -3 -212 -2 -3 290 -3 290 -28 27 -27 28 -780 3 c-685 2
-784 0 -810 -13 -70 -36 -73 -136 -5 -181 20 -13 57 -17 197 -18 l173 -1 3
-212 2 -213 -923 0 -923 0 -32 -27 c-40 -34 -50 -79 -27 -126 9 -19 27 -40 40
-47 20 -11 243 -13 1158 -13 l1133 0 0 -174 c1 -192 6 -212 59 -238 44 -20 77
-19 107 5 46 35 49 59 46 318 l-3 242 -28 27 -27 28 -183 3 -184 3 0 209 c0
144 3 210 11 213 6 2 198 4 426 4 l416 0 1 -283 c0 -305 2 -317 55 -345 15 -8
109 -12 303 -12 l282 -1 -1 -1706 -1 -1705 -1520 -2 c-836 -1 -1542 -2 -1568
-2 -41 -1 -54 -6 -78 -32 -58 -62 -27 -160 55 -174 17 -3 759 -4 1648 -3
l1618 3 27 28 28 27 0 2500 0 2500 -28 27 -27 28 -253 3 -252 3 -33 -28z"/>
<path d="M1953 3164 l-33 -36 2 -574 3 -574 28 -27 27 -28 580 0 580 0 27 28
c28 27 28 29 31 170 2 127 1 145 -17 173 -27 44 -77 60 -124 40 -51 -21 -66
-51 -69 -132 l-3 -69 -422 -1 c-379 -1 -423 1 -427 15 -2 9 -4 199 -4 423 1
287 4 408 12 411 6 2 225 4 487 4 361 0 484 3 507 12 64 27 79 123 26 172
l-26 24 -575 2 -576 3 -34 -36z"/>
<path d="M4323 2970 c-17 -10 -37 -29 -44 -42 -9 -17 -12 -260 -13 -1048 l-1
-1025 -260 -2 c-143 -1 -272 -2 -286 -2 -15 -1 -41 -14 -58 -30 -62 -58 -31
-161 53 -176 17 -3 183 -5 368 -3 l338 3 27 28 28 27 3 1100 c3 1222 7 1147
-63 1176 -45 18 -54 18 -92 -6z"/>
</g>
</svg>
